<?xml version="1.0" encoding="utf-8"?>
<svg viewBox="0 0 500 500" width="500" height="500" xmlns="http://www.w3.org/2000/svg">
  <g transform="matrix(0.854159, -0.006266, 0.017197, 0.85985, 44.035668, 36.266926)" style="">
    <g>
      <path d="M 367.28 18.933 C 363.049 18.933 358.765 19.121 354.55 19.496 C 311.021 23.376 271.333 49.421 242.421 92.975 C 208.88 44.232 153.44 12.933 100.112 12.933 C 88.393 12.933 76.781 14.426 65.605 17.374 C 31.067 26.483 2.908 51.817 -11.647 86.891 C -27.775 125.748 -25 171.264 -4.4 205.675 C 23.891 252.938 72.396 281.786 119.297 309.679 C 143.388 324.014 168.303 338.822 189.671 355.797 C 196.036 360.845 204.031 367.426 210.89 374.596 C 202.236 383 185.122 410.934 184.958 411.269 C 179.58 422.415 172.192 445.982 178.613 463.613 C 181.358 471.134 186.287 476.583 193.281 479.807 C 196.868 481.457 200.642 482.3 204.495 482.3 C 221.06 482.3 236.402 466.832 246.364 453.863 C 264.582 430.118 267.309 405.195 254.461 379.75 C 276.503 360.104 300.483 341.843 323.686 324.171 C 363.601 293.775 404.872 262.337 437.712 222.825 C 453.756 203.516 503.36 135.613 468.3 72.352 C 449.764 38.902 411.998 18.933 367.28 18.933 Z M 223.807 427.458 C 220.474 433.734 217.108 438.265 213.603 441.159 C 214.309 431.836 217.915 422.735 220.231 417.728 C 220.881 416.322 225.141 409.832 228.203 405.491 C 229.165 412.874 227.714 420.105 223.807 427.458 Z M 183.923 77.926 C 194.198 86.267 203.281 95.689 210.922 105.911 C 211.831 107.13 213.227 109.428 214.854 112.088 C 224.231 127.48 234.307 142.508 245.214 142.508 C 250.626 142.508 255.208 138.76 258.83 131.359 C 281.965 84.154 318.882 56.01 362.776 52.105 C 365.328 51.874 367.913 51.767 370.47 51.767 C 404.053 51.767 433.583 71.135 443.962 99.957 C 457.635 137.953 435.994 182.979 377.804 237.603 C 352.819 261.063 325.106 282.157 298.312 302.561 C 277.28 318.567 255.552 335.111 235.208 352.731 C 216.913 332.75 192.915 316.012 173.869 303.556 C 162.569 296.162 150.357 288.931 137.429 281.274 C 73.869 243.636 1.838 200.976 13.193 121.544 C 19.685 76.127 53.993 46.781 100.598 46.781 C 104.022 46.781 107.527 46.941 111.022 47.273 C 136.649 49.675 162.537 60.564 183.923 77.926 Z" style="paint-order: fill; fill-rule: nonzero; fill: rgb(255, 70, 76);"/>
    </g>
  </g>
  <g transform="matrix(1, 0, 0, 1, 1.925159, 11.879744)"/>
  <g transform="matrix(1, 0, 0, 1, 1.925159, 11.879744)"/>
  <g transform="matrix(1, 0, 0, 1, 1.925159, 11.879744)"/>
  <g transform="matrix(1, 0, 0, 1, 1.925159, 11.879744)"/>
  <g transform="matrix(1, 0, 0, 1, 1.925159, 11.879744)"/>
  <g transform="matrix(1, 0, 0, 1, 1.925159, 11.879744)"/>
  <g transform="matrix(1, 0, 0, 1, 1.925159, 11.879744)"/>
  <g transform="matrix(1, 0, 0, 1, 1.925159, 11.879744)"/>
  <g transform="matrix(1, 0, 0, 1, 1.925159, 11.879744)"/>
  <g transform="matrix(1, 0, 0, 1, 1.925159, 11.879744)"/>
  <g transform="matrix(1, 0, 0, 1, 1.925159, 11.879744)"/>
  <g transform="matrix(1, 0, 0, 1, 1.925159, 11.879744)"/>
  <g transform="matrix(1, 0, 0, 1, 1.925159, 11.879744)"/>
  <g transform="matrix(1, 0, 0, 1, 1.925159, 11.879744)"/>
  <g transform="matrix(1, 0, 0, 1, 1.925159, 11.879744)"/>
  <g transform="matrix(0.850494, 0, 0, 0.86952, 40.63585, 27.046809)" style="">
    <g>
      <path d="M383.612,18.933c-4.169,0-8.39,0.188-12.543,0.563c-42.889,3.88-81.994,29.925-110.481,73.479 c-33.048-48.743-87.674-80.042-140.218-80.042c-11.547,0-22.988,1.493-34,4.441c-34.03,9.109-61.776,34.443-76.116,69.517 c-15.892,38.857-13.157,84.373,7.14,118.784c27.875,47.263,75.667,76.111,121.879,104.004 c23.737,14.335,48.286,29.143,69.34,46.118c6.271,5.048,14.149,11.629,20.908,18.799c-8.528,8.404-25.39,36.338-25.552,36.673 c-5.299,11.146-12.578,34.713-6.251,52.344c2.704,7.521,7.561,12.97,14.452,16.194c3.534,1.65,7.253,2.493,11.049,2.493 c16.321,0,31.438-15.468,41.254-28.437c17.95-23.745,20.637-48.668,7.978-74.113c21.718-19.646,45.346-37.907,68.207-55.579 c39.329-30.396,79.993-61.834,112.351-101.346c15.808-19.309,64.683-87.212,30.138-150.473 C464.884,38.902,427.673,18.933,383.612,18.933z M242.248,427.458c-3.285,6.276-6.601,10.807-10.054,13.701 c0.695-9.323,4.248-18.424,6.53-23.431c0.64-1.406,4.837-7.896,7.855-12.237C247.527,412.874,246.097,420.105,242.248,427.458z M202.95,77.926c10.123,8.341,19.073,17.763,26.601,27.985c0.896,1.219,2.272,3.517,3.875,6.177 c9.239,15.392,19.167,30.42,29.914,30.42c5.332,0,9.847-3.748,13.416-11.149c22.795-47.205,59.169-75.349,102.418-79.254 c2.514-0.231,5.062-0.338,7.581-0.338c33.089,0,62.186,19.368,72.412,48.19c13.472,37.996-7.851,83.022-65.186,137.646 c-24.618,23.46-51.923,44.554-78.323,64.958c-20.723,16.006-42.132,32.55-62.177,50.17 c-18.027-19.981-41.672-36.719-60.438-49.175c-11.133-7.394-23.166-14.625-35.904-22.282 c-62.626-37.638-133.599-80.298-122.41-159.73c6.396-45.417,40.2-74.763,86.12-74.763c3.374,0,6.827,0.16,10.27,0.492 C156.37,49.675,181.878,60.564,202.95,77.926z" style="fill: rgb(223, 0, 11);"/>
    </g>
  </g>
</svg>